<svg xmlns="http://www.w3.org/2000/svg" viewBox="0 0 24 24" width="48" height="48">
  <circle cx="12" cy="12" r="10" fill="#3b82f6" />
  <path d="M12 2C9.5 2 7.2 3.1 5.6 4.9C6 5.8 6.9 6.5 8 6.5C8.8 6.5 9.5 6 10 5.3C10.5 5.8 11.2 6 12 6C13.1 6 14 5.1 14 4C14.7 4 15.3 4.2 15.8 4.6C16.8 3 14.5 2 12 2Z" fill="#22c55e" />
  <path d="M4.5 9.5C3.6 10.3 3.1 11.3 3 12.5C3.8 12.8 4.8 12.5 5.3 11.7C5.8 12.5 6.8 13 8 13C8.5 13 9 12.8 9.4 12.5C9.8 13.4 10.8 14 12 14C12.5 14 13 13.8 13.4 13.5C13.8 14.4 14.8 15 16 15C17.5 15 18.8 13.8 19 12.3C19.5 11.5 19.8 10.5 19.9 9.5C19.5 9.2 19 9 18.5 9C17.7 9 17 9.5 16.5 10.2C16 9.7 15.3 9.5 14.5 9.5C13.4 9.5 12.5 10.4 12.5 11.5C11.8 11.5 11.2 11.3 10.7 10.9C9.7 12.5 7.4 11.5 4.5 9.5Z" fill="#22c55e" />
  <path d="M6.5 18C7.5 19.3 9 20.2 10.7 20.6C10.5 19.7 10.9 18.8 11.7 18.3C12.2 18.8 12.9 19 13.7 19C14.7 19 15.5 18.2 15.6 17.2C16.1 17.5 16.5 18 16.7 18.6C18.1 17.4 19 15.6 19.2 13.7C18.5 13.8 17.7 13.5 17.2 12.8C16.7 13.5 15.7 14 14.5 14C14 14 13.5 13.8 13.1 13.5C12.7 14.4 11.7 15 10.5 15C9.4 15 8.5 14.1 8.5 13C7.8 13 7.2 12.8 6.7 12.4C5.7 14 3.4 13 0.5 11C1 14.3 3.2 17 6.5 18Z" fill="#22c55e" />
  <path d="M12 8A4 4 0 0 1 16 12M12 16A4 4 0 0 1 8 12" stroke="#ffffff" stroke-width="2" stroke-linecap="round" fill="none" />
  <path d="M15 10.5L16 12L17.5 11" stroke="#ffffff" stroke-width="2" stroke-linecap="round" stroke-linejoin="round" fill="none" />
  <path d="M9 13.5L8 12L6.5 13" stroke="#ffffff" stroke-width="2" stroke-linecap="round" stroke-linejoin="round" fill="none" />
</svg>